Description:
General
Complete name                    : KBC Season Episode 8th Nov 2010 Xvid MP4-kasimji.mp4
Format                           : MPEG-4
Format profile                   : Base Media / Version 2
Codec ID                         : mp42
File size                        : 190 MiB
Duration                         : 55mn 40s
Overall bit rate                 : 476 Kbps
Encoded date                     : UTC 2010-11-07 22:33:43
Tagged date                      : UTC 2010-11-07 22:33:43

Video
ID                               : 201
Format                           : AVC
Format/Info                      : Advanced Video Codec
Format profile                   : High@L2.1
Format settings, CABAC           : Yes
Format settings, ReFrames        : 2 frames
Codec ID                         : avc1
Codec ID/Info                    : Advanced Video Coding
Duration                         : 55mn 40s
Bit rate mode                    : Variable
Bit rate                         : 414 Kbps
Maximum bit rate                 : 1 313 Kbps
Width                            : 480 pixels
Height                           : 360 pixels
Display aspect ratio             : 4:3
Frame rate mode                  : Constant
Frame rate                       : 25.000 fps
Color space                      : YUV
Chroma subsampling               : 4:2:0
Bit depth                        : 8 bits
Scan type                        : Progressive
Bits/(Pixel*Frame)               : 0.096
Stream size                      : 165 MiB (87%)
Writing library                  : x264 core 68
Tagged date                      : UTC 2010-11-07 22:33:47

Audio
ID                               : 101
Format                           : AAC
Format/Info                      : Advanced Audio Codec
Format version                   : Version 4
Format profile                   : LC
Codec ID                         : 40
Duration                         : 55mn 40s
Bit rate mode                    : Variable
Bit rate                         : 59.0 Kbps
Maximum bit rate                 : 73.9 Kbps
Channel(s)                       : 2 channels
Channel positions                : Front: L R
Sampling rate                    : 44.1 KHz
Stream size                      : 23.5 MiB (12%)
Encoded date                     : UTC 2010-11-07 22:33:46
Tagged date                      : UTC 2010-11-07 22:33:47